HIERARCHY
ROOT root
{
	OFFSET 0.000000 0.000000 0.000000
	CHANNELS 6 Xposition Yposition Zposition Zrotation Yrotation Xrotation
	JOINT lhip
	{
		OFFSET 0.058581 -0.082280 -0.017664
		CHANNELS 3 Zrotation Yrotation Xrotation
		JOINT lknee
		{
			OFFSET 0.043451 -0.386469 0.008037
			CHANNELS 3 Zrotation Yrotation Xrotation
			JOINT lankle
			{
				OFFSET -0.014790 -0.426874 -0.037428
				CHANNELS 3 Zrotation Yrotation Xrotation
				JOINT ltoe
				{
					OFFSET 0.041054 -0.060286 0.122042
					CHANNELS 3 Zrotation Yrotation Xrotation
					End Site
					{
						OFFSET 0.000000 0.000000 0.000000
					}
				}
			}
		}
	}
	JOINT rhip
	{
		OFFSET -0.060310 -0.090513 -0.013543
		CHANNELS 3 Zrotation Yrotation Xrotation
		JOINT rknee
		{
			OFFSET -0.043257 -0.383688 -0.004843
			CHANNELS 3 Zrotation Yrotation Xrotation
			JOINT rankle
			{
				OFFSET 0.019056 -0.420046 -0.034562
				CHANNELS 3 Zrotation Yrotation Xrotation
				JOINT rtoe
				{
					OFFSET -0.034840 -0.062106 0.130323
					CHANNELS 3 Zrotation Yrotation Xrotation
					End Site
					{
						OFFSET 0.000000 0.000000 0.000000
					}
				}
			}
		}
	}
	JOINT lowerback
	{
		OFFSET 0.004439 0.124404 -0.038385
		CHANNELS 3 Zrotation Yrotation Xrotation
		JOINT upperback
		{
			OFFSET 0.004488 0.137956 0.026820
			CHANNELS 3 Zrotation Yrotation Xrotation
			JOINT chest
			{
				OFFSET -0.002265 0.056032 0.002855
				CHANNELS 3 Zrotation Yrotation Xrotation
				JOINT lowerneck
				{
					OFFSET -0.013390 0.211636 -0.033468
					CHANNELS 3 Zrotation Yrotation Xrotation
					JOINT upperneck
					{
						OFFSET 0.010113 0.088937 0.050410
						CHANNELS 3 Zrotation Yrotation Xrotation
						End Site
						{
							OFFSET 0.000000 0.000000 0.000000
						}
					}
				}
				JOINT lclavicle
				{
					OFFSET 0.071702 0.114000 -0.018898
					CHANNELS 3 Zrotation Yrotation Xrotation
					JOINT lshoulder
					{
						OFFSET 0.122921 0.045205 -0.019046
						CHANNELS 3 Zrotation Yrotation Xrotation
						JOINT lelbow
						{
							OFFSET 0.255332 -0.015649 -0.022946
							CHANNELS 3 Zrotation Yrotation Xrotation
							JOINT lwrist
							{
								OFFSET 0.265709 0.012698 -0.007375
								CHANNELS 3 Zrotation Yrotation Xrotation
								End Site
								{
									OFFSET 0.000000 0.000000 0.000000
								}
							}
						}
					}
				}
				JOINT rclavicle
				{
					OFFSET -0.082954 0.112472 -0.023707
					CHANNELS 3 Zrotation Yrotation Xrotation
					JOINT rshoulder
					{
						OFFSET -0.113228 0.046853 -0.008472
						CHANNELS 3 Zrotation Yrotation Xrotation
						JOINT relbow
						{
							OFFSET -0.260127 -0.014369 -0.031269
							CHANNELS 3 Zrotation Yrotation Xrotation
							JOINT rwrist
							{
								OFFSET -0.269108 0.006794 -0.006027
								CHANNELS 3 Zrotation Yrotation Xrotation
								End Site
								{
									OFFSET 0.000000 0.000000 0.000000
								}
							}
						}
					}
				}
			}
		}
	}
}
MOTION
Frames: 10
Frame Time: 0.033333
0.768808 0.709208 0.987499 -91.113040 -0.326260 85.681838 -1.492960 0.381126 3.910550 1.360628 -8.294141 1.739033 1.394769 12.426013 -11.708428 0.000000 -0.000000 0.000000 1.540665 -2.834961 3.902711 -4.108165 1.259223 2.806234 2.497437 -11.120449 -11.070760 0.000000 -0.000000 0.000000 -1.347868 2.479748 8.425711 -1.341942 -2.636159 3.064549 -1.449138 0.228221 -0.786802 2.026268 -1.096298 -8.514506 7.109757 -0.784843 -4.151868 -24.342248 -2.145890 -0.151705 -53.105433 -1.372811 16.277929 -2.188908 -16.100280 14.216110 -13.369649 -4.199805 5.985813 21.171408 2.637174 0.409987 60.847957 -5.369239 17.531264 -0.107068 28.535125 12.073166 5.251866 3.409687 -0.200189 
0.770314 0.708966 0.987743 -91.546767 -0.320402 85.791629 -1.476642 0.381879 3.198005 1.129914 -8.085887 2.781512 1.544012 12.679324 -12.092089 0.000000 -0.000000 0.000000 1.536246 -2.490180 3.163235 -4.062274 1.218855 3.811909 2.529583 -11.329291 -11.100608 0.000000 -0.000000 0.000000 -1.374946 2.576197 8.615917 -1.249359 -2.592776 3.076831 -1.432442 0.074308 -0.645142 1.926630 -1.028681 -8.443867 7.198568 -0.658925 -4.634555 -24.074956 -2.218176 -0.267381 -53.255955 -1.253604 16.392976 -2.175401 -16.173181 14.048920 -13.702572 -4.367237 6.097861 20.709196 2.801825 0.257239 60.501390 -5.481044 17.848095 0.610286 29.249020 13.257668 6.185132 3.664909 -0.061820 
0.771878 0.709159 0.987935 -92.019441 -0.325224 85.746570 -1.447585 0.279756 2.629645 0.856942 -7.780505 3.901770 1.701233 12.955418 -12.497834 0.000000 -0.000000 0.000000 1.555916 -2.161749 2.544281 -4.049653 1.415420 4.806491 2.424727 -11.336357 -11.449338 0.000000 -0.000000 0.000000 -1.354934 2.701572 9.135914 -1.293424 -2.541201 3.129858 -1.412364 0.008993 -0.756219 2.036849 -1.098670 -8.461910 7.219981 -0.536186 -4.784540 -23.815809 -2.294209 -0.241050 -53.152682 -0.870344 16.470873 -2.311039 -16.755435 13.860947 -13.466186 -4.542391 5.590463 20.372940 3.033936 0.312225 60.028350 -5.625963 18.027871 1.323553 30.456198 13.590602 6.583329 3.941085 -1.107239 
0.772688 0.709142 0.988021 -92.044372 -0.200072 85.700100 -1.176133 -0.097963 1.567120 0.214223 -7.588828 6.020372 1.825612 13.172379 -13.285388 0.000000 -0.000000 0.000000 1.570143 -2.224737 2.099840 -3.750842 1.570207 5.642802 2.263386 -11.353300 -11.836258 0.000000 -0.000000 0.000000 -1.297642 2.597629 9.555231 -1.237940 -2.765131 3.349146 -1.376977 -0.070188 -0.611047 2.164715 -1.096515 -8.790165 7.203826 -0.606085 -5.040764 -23.427328 -2.221080 -0.243348 -52.521310 -0.462152 16.125501 -3.061636 -17.893567 13.974942 -13.646167 -5.212202 4.896690 19.901388 3.283933 0.320373 59.052816 -5.874581 18.265211 2.769399 31.966940 15.071361 7.285758 4.414526 -1.360073 
0.773768 0.709169 0.988002 -91.947154 -0.094571 85.815485 -0.955746 -0.297636 0.680798 -0.185722 -7.577633 7.311070 1.980449 13.289804 -13.915934 0.000000 -0.000000 0.000000 1.720595 -2.157775 1.434130 -3.701365 1.624419 6.541370 2.128979 -11.523239 -12.297285 0.000000 -0.000000 0.000000 -1.278566 2.439516 10.175334 -1.157901 -2.892253 2.896437 -1.350821 -0.165675 -0.424268 2.377784 -0.917386 -9.141312 7.119870 -0.426639 -5.129212 -23.159356 -1.985168 -0.425743 -51.924855 0.109991 15.985168 -3.671139 -18.993136 14.115388 -12.850127 -5.736020 4.546385 19.696126 3.224045 0.201218 58.108332 -6.204941 18.697375 3.924045 33.350313 17.086794 6.545247 4.735320 -0.212874 
0.775231 0.709278 0.987503 -92.141568 -0.075690 85.937801 -0.784736 -0.557646 -0.405222 -0.742197 -7.239266 9.048917 2.184665 13.456490 -14.620566 0.000000 -0.000000 0.000000 1.635869 -1.975279 0.291382 -3.341248 1.652916 8.241320 1.975931 -11.479123 -13.067525 0.000000 -0.000000 0.000000 -1.304896 2.463233 11.040885 -1.199308 -2.808235 2.315934 -1.309989 -0.278128 -0.130985 2.437051 -0.805605 -9.458727 7.190417 -0.561312 -5.516068 -22.630141 -2.009355 -0.391304 -51.123168 0.768434 15.730414 -4.488825 -20.476529 14.056684 -12.233433 -6.614470 3.476187 19.214520 3.272203 0.079498 57.077556 -6.606167 18.932775 5.234313 35.448110 18.796904 5.904492 5.344323 -0.314163 
0.777563 0.709545 0.986737 -92.150245 0.045463 86.094689 -0.451673 -0.932551 -2.045779 -1.527974 -7.120821 11.597798 2.429348 13.894889 -15.607408 0.000000 -0.000000 0.000000 1.758925 -1.576241 -1.125144 -3.027192 1.718783 10.353672 1.707826 -11.836529 -13.993573 0.000000 -0.000000 0.000000 -1.440858 2.640400 12.035782 -0.984319 -2.556187 1.653554 -1.119235 -0.540402 0.316856 2.599539 -0.916444 -9.746058 7.124372 -0.563441 -5.752513 -22.250671 -2.077914 -0.432861 -50.393469 1.196655 15.562058 -5.078712 -21.839770 13.669660 -11.320033 -7.311892 2.482969 18.647431 3.583462 0.199176 56.006710 -7.195540 19.263185 6.088931 37.355835 20.017559 5.013787 5.783877 -0.413380 
0.780941 0.709778 0.983538 -92.212399 0.292979 85.785772 0.047862 -0.957064 -3.699691 -1.914285 -6.096820 15.096307 2.068664 12.892444 -18.386794 0.000000 -0.000000 0.000000 2.094356 -1.016016 -2.623522 -3.220649 0.748071 13.534817 3.235911 -10.694216 -17.215939 0.000000 -0.000000 0.000000 -1.040916 2.463294 13.875972 -1.336123 -1.826969 -1.116917 -0.788595 -0.280244 3.841482 3.719625 2.446385 -11.802284 5.349936 -4.386427 -6.527539 -20.382573 -0.075491 -0.210956 -49.505328 -3.225423 11.123382 -11.701684 -20.014294 21.525032 -7.525602 -7.165159 -2.047829 17.406797 0.487658 -0.504866 54.777598 -5.068327 19.605517 10.091958 39.793694 27.037096 3.265349 2.179330 -3.389388 
0.784094 0.709333 0.980508 -92.174407 0.438404 86.338237 0.631337 -1.231496 -6.186139 -2.980032 -5.626207 18.329406 2.540363 13.048521 -19.591259 0.000000 -0.000000 0.000000 2.060776 -0.634995 -5.108500 -2.565192 0.796624 16.733091 3.028929 -11.069452 -18.573990 0.000000 -0.000000 0.000000 -0.936431 2.283905 15.086333 -1.331704 -1.657410 -2.219274 -0.864921 -0.235158 4.580517 3.958763 2.782133 -12.622580 5.307992 -4.501620 -6.878667 -19.416772 0.148180 -0.194990 -48.958169 -3.287853 10.578254 -12.673452 -21.328136 22.913916 -5.988447 -7.478842 -3.471979 16.129541 0.219399 -0.614014 54.794910 -4.860509 19.733515 10.430277 41.390682 29.159966 1.845274 2.444848 -2.957880 
0.788237 0.709592 0.974541 -91.956143 0.604093 86.677086 1.307721 -1.560185 -9.166021 -4.198374 -5.042570 22.672968 3.019822 13.276945 -21.342927 0.000000 -0.000000 0.000000 1.827920 -0.548522 -7.828849 -1.642155 0.422786 20.651909 2.541966 -11.231544 -20.383831 0.000000 -0.000000 0.000000 -0.955669 2.271824 16.616893 -1.135329 -1.715050 -2.353857 -0.790001 -0.374847 5.191891 4.058605 2.890574 -13.590410 5.283407 -4.563149 -7.741239 -18.753306 -0.201352 -0.105733 -48.106185 -3.119894 10.271278 -13.068140 -23.531419 22.986470 -3.503362 -8.279604 -4.302577 15.184978 0.738140 -0.767391 53.790607 -4.318528 19.496994 11.311877 42.569819 30.143826 -0.242576 3.035230 -3.048030 
